<!DOCTYPE svg PUBLIC "-//W3C//DTD SVG 1.1//EN" "http://www.w3.org/Graphics/SVG/1.1/DTD/svg11.dtd">

<!-- Uploaded to: SVG Repo, www.svgrepo.com, Transformed by: SVG Repo Mixer Tools -->
<svg width="800px" height="800px" viewBox="0 0 48 48" version="1" xmlns="http://www.w3.org/2000/svg" enable-background="new 0 0 48 48">

<g id="SVGRepo_bgCarrier" stroke-width="0"/>

<g id="SVGRepo_tracerCarrier" stroke-linecap="round" stroke-linejoin="round"/>

<g id="SVGRepo_iconCarrier"> <circle cx="12" cy="21" r="5"/> <g> <path d="M2,34.7c0,0,2.8-6.3,10-6.3s10,6.3,10,6.3V38H2V34.7z"/> <path d="M46,34.7c0,0-2.8-6.3-10-6.3s-10,6.3-10,6.3V38h20V34.7z"/> </g> <circle cx="24" cy="17" r="6"/> <path d="M36,34.1c0,0-3.3-7.5-12-7.5s-12,7.5-12,7.5V38h24V34.1z"/> <circle cx="36" cy="21" r="5"/> <circle cx="12" cy="21" r="5"/> <circle cx="36" cy="21" r="5"/> </g>

</svg>