<svg width="0" height="0" class="hidden">
  <symbol version="1.1" id="key" xmlns="http://www.w3.org/2000/svg" xmlns:xlink="http://www.w3.org/1999/xlink" xml:space="preserve" viewBox="0 0 512 512">
    <g>
      <g>
        <path d="M456.649,200.649H236.125c-20.379-41.006-62.687-69.189-111.584-69.189C55.758,131.459,0,187.218,0,256
			s55.758,124.541,124.541,124.541c48.897,0,91.205-28.184,111.584-69.189h12.956l41.513,41.513l41.513-41.513l41.514,41.513
			l41.513-41.513h41.514L512,256L456.649,200.649z M124.541,283.676c-15.26,0-27.676-12.415-27.676-27.676
			s12.415-27.676,27.676-27.676S152.216,240.74,152.216,256S139.801,283.676,124.541,283.676z"></path>
      </g>
    </g>
  </symbol>
  <symbol version="1.1" xmlns="http://www.w3.org/2000/svg" xmlns:xlink="http://www.w3.org/1999/xlink" fill="white" viewBox="0 0 600 600" id="profile">
    <title>Abstract user icon</title>
    <defs>
      <clipPath id="circular-border">
        <circle cx="300" cy="300" r="280"></circle>
      </clipPath>
      <clipPath id="avoid-antialiasing-bugs">
        <rect width="100%" height="498"></rect>
      </clipPath>
    </defs>
    <circle cx="300" cy="300" r="280" fill="black" clip-path="url(#avoid-antialiasing-bugs)"></circle>
    <circle cx="300" cy="230" r="115"></circle>
    <circle cx="300" cy="550" r="205" clip-path="url(#circular-border)"></circle>
  </symbol>
</svg>